<?xml version="1.0" encoding="iso-8859-1"?>
<!-- Generator: Adobe Illustrator 19.0.0, SVG Export Plug-In . SVG Version: 6.00 Build 0)  -->
<svg version="1.1" id="Capa_1" xmlns="http://www.w3.org/2000/svg" xmlns:xlink="http://www.w3.org/1999/xlink" x="0px" y="0px"
	 viewBox="0 0 512 512" style="enable-background:new 0 0 512 512;" xml:space="preserve">
<g>
	<g>
		<path d="M437.02,74.98C388.667,26.629,324.38,0,256,0S123.333,26.629,74.98,74.98C26.629,123.333,0,187.62,0,256
			s26.629,132.667,74.98,181.02C123.333,485.371,187.62,512,256,512s132.667-26.629,181.02-74.98
			C485.371,388.667,512,324.38,512,256S485.371,123.333,437.02,74.98z M256,482c-60.367,0-117.12-23.508-159.806-66.194
			C53.508,373.12,30,316.367,30,256c0-55.339,19.768-107.633,55.943-148.844l67.701,67.701l-11.98,45.523l29.012,7.635l7.526-28.6
			l32.269,32.269l-9.589,37.264v55.527l-77.956,7.954l3.045,29.846l104.911-10.706v-59.71l34.414,11.82l14.193,37.75l-22.156,86.155
			l29.055,7.473l24.514-95.325l-4.589-12.206l98.532,98.532C363.633,462.232,311.339,482,256,482z M195.953,174.74l27.221,7.577
			l-4.021,15.624L195.953,174.74z M426.057,404.844L296.384,275.171l16.682-67.832l50.927,14.176l37.122-78.613l-27.127-12.811
			l-26.321,55.738L164.196,134.76l-1.713,6.51l-55.327-55.327C148.367,49.768,200.661,30,256,30
			c60.367,0,117.12,23.508,159.806,66.194C458.492,138.88,482,195.633,482,256C482,311.339,462.232,363.633,426.057,404.844z"/>
	</g>
</g>
<g>
	<g>
		<path d="M287.026,65.68C264.404,65.68,246,84.084,246,106.706s18.404,41.026,41.026,41.026s41.026-18.404,41.026-41.026
			S309.648,65.68,287.026,65.68z"/>
	</g>
</g>
<g>
</g>
<g>
</g>
<g>
</g>
<g>
</g>
<g>
</g>
<g>
</g>
<g>
</g>
<g>
</g>
<g>
</g>
<g>
</g>
<g>
</g>
<g>
</g>
<g>
</g>
<g>
</g>
<g>
</g>
</svg>
