<svg id="icons" enable-background="new 0 0 64 64" height="512" viewBox="0 0 64 64" width="512" xmlns="http://www.w3.org/2000/svg"><path d="m25.5 0h-14c-2.757 0-5 2.243-5 5v2.002h-.001c-.553 0-1 .447-1 1v37.98 15.018c0 1.654 1.346 3 3 3h26.004c1.303 0 2.402-.84 2.816-2.002h5.184c.553 0 1-.447 1-1v-14.002c0-.553-.447-1-1-1h-5.18c-.379-1.077-1.349-1.866-2.523-1.983-.024-.002-.046-.015-.071-.015h-.071c-.052-.003-.102-.016-.154-.016-.027 0-.051.014-.077.016h-2.921v-35.996c0-.553-.447-1-1-1h-.006v-2.002c0-2.757-2.243-5-5-5zm16.003 59.998h-4v-12.002h4zm-21.002-16c-.553 0-1 .447-1 1s.447 1 1 1h14.079c.514.041.923.46.923.984v.014 14.002.002c0 .552-.448 1-1 1h-26.004c-.552 0-1-.448-1-1v-15.018-36.98h22.006v34.996zm-12.001-36.996v-2.002c0-1.654 1.346-3 3-3h14c1.654 0 3 1.346 3 3v2.002z"/><path d="m46.502 49.998h5.996c.553 0 1-.447 1-1s-.447-1-1-1h-5.996c-.553 0-1 .447-1 1s.447 1 1 1z"/><path d="m46.502 55h11.001c.553 0 1-.447 1-1s-.447-1-1-1h-11.001c-.553 0-1 .447-1 1s.447 1 1 1z"/><path d="m46.502 60h5.996c.553 0 1-.447 1-1s-.447-1-1-1h-5.996c-.553 0-1 .447-1 1s.447 1 1 1z"/></svg>